<?xml version="1.0" encoding="UTF-8" ?>
<!DOCTYPE svg PUBLIC "-//W3C//DTD SVG 1.1//EN" "http://www.w3.org/Graphics/SVG/1.1/DTD/svg11.dtd">
<svg width="786pt" height="78pt" viewBox="0 0 786 78" version="1.1" xmlns="http://www.w3.org/2000/svg">
<path fill="#ffffff" d=" M 0.00 0.00 L 786.00 0.00 L 786.00 11.93 C 782.44 15.28 780.71 19.94 778.14 23.99 C 775.39 28.35 772.93 32.87 770.46 37.39 C 766.88 30.19 762.37 23.51 758.58 16.42 C 757.65 14.66 756.33 13.14 754.72 11.98 C 755.81 14.80 757.33 17.43 758.93 19.99 C 762.04 25.01 764.39 30.48 767.68 35.40 C 769.68 38.01 770.01 41.28 769.94 44.46 C 769.74 48.68 769.63 52.91 769.99 57.13 C 771.57 55.43 771.28 53.14 770.95 51.05 C 771.21 50.81 771.74 50.32 772.00 50.08 L 770.91 50.09 C 770.97 48.69 770.97 47.29 770.97 45.89 L 771.36 46.15 C 771.28 42.99 770.40 39.42 772.52 36.72 C 777.44 29.36 780.71 21.03 785.99 13.90 L 786.00 15.26 L 786.00 78.00 L 0.00 78.00 L 0.00 14.85 C 5.07 15.17 10.15 14.96 15.22 15.03 C 15.04 16.99 14.82 18.95 14.58 20.91 C 15.10 20.97 16.14 21.08 16.66 21.14 C 16.70 19.09 16.74 17.05 16.81 15.00 C 21.60 15.00 26.39 15.01 31.19 15.00 C 31.17 14.52 31.15 13.55 31.14 13.06 C 20.76 13.25 10.38 13.12 0.00 13.14 L 0.00 0.00 Z" />
<path fill="#ff8d4d" d=" M 36.99 11.80 C 37.46 11.85 38.42 11.94 38.90 11.99 C 38.64 26.57 38.72 41.16 38.82 55.74 C 38.37 55.79 37.46 55.89 37.00 55.94 C 36.99 41.23 37.05 26.52 36.99 11.80 Z" />
<path fill="#ff8d4d" d=" M 301.95 11.79 L 303.48 11.99 C 303.35 24.31 303.36 36.63 303.43 48.96 C 303.32 51.59 304.01 54.58 302.19 56.80 C 301.58 41.82 302.08 26.79 301.95 11.79 Z" />
<path fill="#ff8d4d" d=" M 0.00 13.14 C 10.38 13.12 20.76 13.25 31.14 13.06 C 31.15 13.55 31.17 14.52 31.19 15.00 C 26.39 15.01 21.60 15.00 16.81 15.00 C 16.74 17.05 16.70 19.09 16.66 21.14 C 16.14 21.08 15.10 20.97 14.58 20.91 C 14.82 18.95 15.04 16.99 15.22 15.03 C 10.15 14.96 5.07 15.17 0.00 14.85 L 0.00 13.14 Z" />
<path fill="#ff8d4d" d=" M 48.98 13.35 C 56.99 13.19 65.00 13.42 73.01 13.18 C 73.05 13.64 73.14 14.57 73.19 15.04 C 65.64 15.06 58.10 15.11 50.56 15.00 C 50.97 20.96 50.34 26.94 50.79 32.89 C 57.52 33.31 64.29 33.06 71.04 33.08 C 71.05 33.56 71.08 34.52 71.09 35.00 C 63.74 35.52 56.06 33.80 48.97 36.23 C 49.34 28.60 49.07 20.97 48.98 13.35 Z" />
<path fill="#ff8d4d" d=" M 79.98 13.35 C 87.99 13.19 96.00 13.42 104.01 13.18 C 104.05 13.65 104.14 14.57 104.18 15.04 C 96.64 15.06 89.09 15.11 81.54 15.00 C 81.76 18.99 81.78 22.98 81.58 26.97 C 81.58 28.94 81.66 30.92 81.83 32.89 C 88.55 33.32 95.30 33.06 102.03 33.08 C 102.05 33.56 102.08 34.52 102.09 35.00 C 94.75 35.54 87.03 33.76 79.97 36.27 C 80.35 28.63 80.08 20.99 79.98 13.35 Z" />
<path fill="#ff8d4d" d=" M 108.59 51.43 C 113.93 38.45 118.12 24.98 123.93 12.20 C 126.04 15.32 126.83 19.05 128.21 22.50 C 131.01 29.52 133.69 36.60 136.25 43.71 C 137.91 48.38 140.16 52.85 141.25 57.71 C 140.20 56.82 139.00 55.96 138.64 54.55 C 136.93 50.03 135.37 45.46 133.49 41.01 C 127.13 40.99 120.77 41.01 114.41 41.00 C 112.26 46.53 110.20 52.09 108.12 57.64 C 106.05 55.86 108.09 53.44 108.59 51.43 Z" />
<path fill="#ff8d4d" d=" M 146.89 12.46 C 148.87 14.10 150.53 16.08 151.87 18.28 C 158.09 27.35 164.52 36.28 170.80 45.31 C 172.37 47.84 174.22 50.18 176.10 52.48 C 176.15 50.73 175.52 48.81 176.15 47.12 C 176.46 46.98 177.09 46.71 177.40 46.57 C 177.42 49.88 177.40 53.19 177.05 56.49 C 173.72 52.86 171.35 48.51 168.35 44.63 C 166.55 41.85 164.57 39.21 162.68 36.49 C 160.72 33.43 158.42 30.61 156.51 27.51 C 154.57 24.98 152.73 22.39 151.08 19.66 C 150.14 18.54 149.20 17.42 148.25 16.31 C 148.31 20.66 148.28 25.02 148.38 29.38 C 148.08 29.24 147.47 28.95 147.16 28.81 C 146.28 24.56 146.86 19.89 147.15 15.50 C 147.08 14.74 146.95 13.22 146.89 12.46 Z" />
<path fill="#ff8d4d" d=" M 175.94 13.43 C 177.34 13.01 177.80 13.50 177.34 14.90 C 175.93 15.33 175.46 14.84 175.94 13.43 Z" />
<path fill="#ff8d4d" d=" M 183.59 12.22 C 188.16 16.29 190.22 22.34 193.34 27.48 C 193.62 27.98 194.20 28.97 194.49 29.46 C 195.19 30.78 195.86 32.11 196.51 33.46 C 197.36 34.63 197.96 36.27 199.66 36.34 C 200.93 34.40 202.00 32.35 203.04 30.29 C 203.58 29.36 204.12 28.43 204.66 27.50 C 207.64 22.23 210.10 16.51 214.40 12.14 C 212.71 17.29 209.76 21.93 206.85 26.46 C 204.46 30.76 202.05 35.05 199.64 39.34 C 199.80 40.96 199.94 42.58 200.09 44.21 C 199.56 44.22 198.50 44.23 197.97 44.24 C 198.11 42.58 198.23 40.92 198.38 39.25 C 196.94 36.72 195.51 34.18 194.04 31.67 C 193.14 29.96 192.21 28.26 191.29 26.56 C 190.79 25.90 190.29 25.24 189.79 24.57 C 187.63 20.51 185.06 16.62 183.59 12.22 Z" />
<path fill="#ff8d4d" d=" M 234.92 13.19 C 240.31 13.19 245.73 12.75 251.10 13.28 C 255.45 13.68 258.13 17.63 259.80 21.27 C 259.89 23.49 260.95 25.92 259.51 27.93 C 258.58 23.11 257.48 16.75 251.93 15.27 C 246.75 14.68 241.50 15.15 236.30 15.00 C 236.23 22.37 236.80 29.79 235.90 37.12 C 241.50 37.16 247.19 37.80 252.74 36.87 C 257.17 35.48 257.56 30.21 260.17 27.03 C 259.95 29.31 259.53 31.56 259.05 33.79 C 257.19 35.82 255.07 37.58 252.77 39.08 C 247.29 39.02 241.81 39.08 236.34 38.99 C 236.38 40.37 236.43 41.75 236.50 43.13 C 236.10 43.14 235.30 43.18 234.90 43.19 C 235.14 33.19 234.95 23.19 234.92 13.19 Z" />
<path fill="#ff8d4d" d=" M 267.72 13.18 C 273.35 13.23 279.04 12.58 284.64 13.42 C 288.74 14.05 290.65 18.13 292.48 21.35 C 292.51 21.62 292.58 22.14 292.61 22.40 C 292.83 24.10 293.01 25.81 293.21 27.52 C 292.72 29.56 292.22 31.61 291.76 33.67 C 289.69 36.24 287.01 38.21 284.07 39.70 C 287.93 44.77 290.52 50.63 293.55 56.20 L 292.04 56.07 C 288.61 50.52 285.36 44.85 282.39 39.04 C 277.96 39.05 273.53 39.06 269.10 39.07 C 269.12 40.41 269.13 41.76 269.15 43.11 C 268.77 43.12 268.01 43.15 267.63 43.16 C 267.86 33.17 267.64 23.17 267.72 13.18 Z" />
<path fill="#ff8d4d" d=" M 320.18 14.95 C 324.73 12.87 330.25 11.59 334.80 14.40 C 338.67 15.92 340.83 19.56 342.81 22.98 C 342.50 23.15 341.90 23.48 341.59 23.65 C 340.21 21.06 338.34 18.79 336.40 16.60 C 333.06 15.43 329.53 13.67 325.92 14.70 C 323.51 15.08 321.40 16.30 319.44 17.68 L 319.25 18.33 C 318.17 18.72 317.08 19.08 316.00 19.42 C 317.28 17.82 318.69 16.34 320.18 14.95 Z" />
<path fill="#ff8d4d" d=" M 350.26 13.37 C 358.16 13.16 366.07 13.43 373.97 13.17 C 374.20 13.62 374.65 14.53 374.87 14.98 C 367.17 15.13 359.46 15.09 351.75 15.00 C 351.96 18.05 352.02 21.10 352.04 24.16 C 351.60 24.16 350.72 24.17 350.27 24.17 C 350.43 20.57 350.45 16.97 350.26 13.37 Z" />
<path fill="#ff8d4d" d=" M 396.72 13.18 C 402.38 13.24 408.09 12.56 413.71 13.43 C 417.77 14.09 419.66 18.16 421.48 21.35 C 421.51 21.61 421.57 22.12 421.60 22.38 C 421.82 24.08 422.01 25.78 422.22 27.49 C 421.67 32.34 419.12 37.55 414.03 38.88 C 408.74 39.34 403.41 38.94 398.10 39.06 C 398.11 40.42 398.13 41.78 398.15 43.13 C 397.77 43.12 397.01 43.08 396.63 43.06 C 396.85 33.10 396.65 23.14 396.72 13.18 Z" />
<path fill="#ff8d4d" d=" M 429.29 24.17 C 429.94 20.32 428.01 15.62 430.73 12.40 C 431.07 16.37 430.97 20.36 431.03 24.35 C 430.59 24.30 429.72 24.21 429.29 24.17 Z" />
<path fill="#ff8d4d" d=" M 456.20 12.29 C 457.96 14.49 457.35 17.38 457.40 19.96 C 457.18 26.99 457.64 34.03 457.22 41.06 C 456.97 40.98 456.45 40.81 456.20 40.73 C 455.94 38.88 455.97 37.00 455.81 35.13 C 451.95 34.29 447.93 34.99 444.01 34.84 C 439.54 35.06 434.93 34.13 430.60 35.58 C 430.81 38.08 430.92 40.59 431.04 43.09 C 430.59 43.11 429.69 43.13 429.24 43.15 C 429.49 37.05 429.52 30.93 429.28 24.83 C 429.72 24.85 430.60 24.88 431.03 24.90 C 430.89 27.47 430.80 30.03 430.62 32.60 C 439.00 33.34 447.46 32.97 455.87 32.87 C 456.48 26.03 455.48 19.14 456.20 12.29 Z" />
<path fill="#ff8d4d" d=" M 473.20 16.15 C 476.08 14.41 479.25 13.22 482.59 12.71 C 485.40 13.12 488.14 13.92 490.74 15.09 C 492.00 16.25 493.26 17.40 494.55 18.53 C 494.48 18.94 494.34 19.76 494.27 20.17 L 495.70 19.92 C 496.01 20.51 496.63 21.70 496.94 22.29 C 498.98 25.52 499.61 29.30 500.14 33.02 C 499.57 33.04 498.44 33.08 497.88 33.10 C 498.08 32.68 498.49 31.84 498.70 31.42 C 498.16 30.03 497.64 28.64 497.11 27.24 L 498.36 27.31 C 497.73 26.39 497.08 25.49 496.49 24.55 C 495.28 22.41 493.89 20.39 492.56 18.33 C 489.92 16.75 487.21 15.01 484.06 14.73 C 480.68 14.13 477.55 15.80 474.43 16.79 C 470.05 21.04 467.36 26.96 466.90 33.03 C 466.44 33.04 465.54 33.05 465.09 33.06 C 465.44 31.55 465.78 30.03 466.13 28.52 C 466.62 26.29 467.35 24.13 468.12 21.98 L 469.45 21.90 C 469.41 21.56 469.31 20.87 469.27 20.53 C 469.97 19.82 470.66 19.11 471.36 18.38 C 471.97 17.65 472.59 16.90 473.20 16.15 Z" />
<path fill="#ff8d4d" d=" M 502.99 13.14 C 513.33 13.09 523.68 13.25 534.02 13.09 C 534.02 13.57 534.03 14.54 534.03 15.02 C 529.10 15.04 524.17 14.87 519.25 15.15 C 519.30 17.12 519.37 19.09 519.48 21.06 C 519.05 21.09 518.19 21.15 517.76 21.18 C 517.79 19.15 517.83 17.12 517.86 15.08 C 512.90 14.97 507.95 15.00 502.99 15.00 C 502.99 14.53 502.99 13.61 502.99 13.14 Z" />
<path fill="#ff8d4d" d=" M 551.45 13.16 C 553.79 13.08 556.14 13.09 558.49 13.15 C 559.05 13.41 560.15 13.95 560.70 14.22 C 561.21 14.45 562.23 14.92 562.73 15.15 C 563.18 15.46 564.08 16.08 564.53 16.39 C 565.25 17.19 565.98 17.98 566.72 18.78 C 566.46 19.12 565.94 19.79 565.68 20.13 C 562.07 14.80 554.02 12.91 548.48 16.31 C 544.19 18.19 542.13 22.59 540.18 26.53 C 539.71 28.71 539.30 30.89 538.95 33.09 L 537.34 33.05 C 537.76 31.44 538.23 29.85 538.73 28.26 C 538.60 28.03 538.34 27.58 538.21 27.35 C 538.98 26.00 539.69 24.62 540.41 23.23 L 540.36 22.67 C 541.44 21.16 542.46 19.61 543.43 18.03 C 543.79 18.00 544.51 17.95 544.87 17.93 C 544.91 17.40 544.98 16.35 545.02 15.82 C 545.33 15.95 545.95 16.21 546.26 16.35 C 547.22 15.57 548.19 14.81 549.18 14.06 C 549.75 13.84 550.89 13.39 551.45 13.16 Z" />
<path fill="#ff8d4d" d=" M 582.27 19.88 C 583.87 16.04 587.81 14.51 591.33 12.94 C 596.22 12.27 601.39 13.51 605.01 16.99 C 606.81 18.94 608.24 21.20 609.54 23.50 C 608.57 23.28 607.33 23.41 606.96 22.23 C 605.62 20.20 604.11 18.29 602.53 16.45 C 599.56 15.44 596.51 13.98 593.30 14.46 C 590.95 14.90 588.74 15.84 586.49 16.62 C 583.66 19.59 581.53 23.10 579.44 26.60 C 579.65 26.97 580.06 27.70 580.27 28.07 C 579.61 28.12 578.29 28.22 577.63 28.27 C 578.57 25.84 579.62 23.44 580.94 21.18 C 580.94 20.89 580.95 20.31 580.95 20.02 C 581.28 19.99 581.94 19.91 582.27 19.88 Z" />
<path fill="#ff8d4d" d=" M 618.29 13.29 C 624.03 13.17 629.86 12.54 635.57 13.46 C 640.41 14.30 642.17 19.43 643.77 23.41 C 643.85 24.65 643.95 25.89 644.06 27.12 C 643.66 27.12 642.86 27.13 642.46 27.13 C 642.51 22.36 640.61 17.02 635.72 15.35 C 630.44 14.60 625.06 15.19 619.75 15.00 C 619.96 18.08 620.02 21.17 620.06 24.26 C 619.61 24.24 618.72 24.18 618.28 24.16 C 618.43 20.54 618.41 16.91 618.29 13.29 Z" />
<path fill="#ff8d4d" d=" M 652.64 43.63 C 656.75 33.17 660.21 22.41 664.92 12.20 C 665.72 13.44 666.41 14.75 666.94 16.13 C 669.89 24.70 673.49 33.02 676.47 41.58 C 678.28 47.00 680.94 52.13 682.25 57.71 C 681.19 56.82 680.00 55.97 679.64 54.55 C 677.93 50.04 676.37 45.47 674.50 41.02 C 668.13 40.99 661.76 41.00 655.39 41.02 C 653.29 46.23 651.55 51.59 649.38 56.78 C 649.00 56.85 648.23 56.98 647.85 57.05 C 648.87 52.39 651.04 48.10 652.64 43.63 Z" />
<path fill="#ff8d4d" d=" M 687.98 13.27 C 695.60 13.67 705.10 10.57 710.95 17.05 C 712.39 19.96 713.43 23.06 713.89 26.29 C 713.38 28.83 712.80 31.35 712.07 33.83 C 710.26 36.00 708.22 38.39 705.31 38.96 C 700.08 39.26 694.83 39.02 689.60 38.98 C 689.69 40.37 689.80 41.75 689.92 43.14 C 689.45 43.14 688.51 43.16 688.04 43.16 C 688.08 41.08 688.08 38.99 688.06 36.91 C 694.50 37.42 701.01 37.64 707.42 36.73 C 709.91 33.82 712.43 30.40 712.20 26.36 C 712.06 21.83 709.71 16.43 704.95 15.22 C 699.83 14.74 694.68 15.12 689.55 15.00 C 689.94 22.05 689.34 29.12 689.88 36.17 C 689.40 36.21 688.45 36.30 687.98 36.34 C 688.31 28.65 688.09 20.96 687.98 13.27 Z" />
<path fill="#ff8d4d" d=" M 721.22 12.31 C 721.97 13.48 722.52 14.81 722.44 16.23 C 722.35 21.82 722.31 27.41 722.35 33.00 C 730.70 32.99 739.05 33.00 747.41 33.00 C 747.42 31.81 747.44 30.61 747.48 29.42 C 747.45 27.82 747.44 26.23 747.44 24.63 C 747.45 20.52 746.95 16.32 748.07 12.29 C 749.08 14.72 749.10 17.37 749.02 19.95 C 748.77 27.67 748.97 35.39 749.01 43.11 C 748.54 43.13 747.62 43.19 747.16 43.21 C 747.38 40.62 747.51 38.03 747.74 35.44 C 743.58 34.45 739.29 34.85 735.06 34.82 C 730.73 34.91 726.34 34.42 722.09 35.44 C 722.30 38.00 722.39 40.56 722.52 43.13 C 722.12 43.14 721.31 43.15 720.90 43.16 C 721.35 32.88 720.55 22.57 721.22 12.31 Z" />
<path fill="#ff8d4d" d=" M 754.72 11.98 C 756.33 13.14 757.65 14.66 758.58 16.42 C 762.37 23.51 766.88 30.19 770.46 37.39 C 772.93 32.87 775.39 28.35 778.14 23.99 C 780.71 19.94 782.44 15.28 786.00 11.93 L 786.00 15.26 L 785.99 13.90 C 780.71 21.03 777.44 29.36 772.52 36.72 C 770.40 39.42 771.28 42.99 771.36 46.15 L 770.97 45.89 C 770.97 47.29 770.97 48.69 770.91 50.09 L 772.00 50.08 C 771.74 50.32 771.21 50.81 770.95 51.05 C 771.28 53.14 771.57 55.43 769.99 57.13 C 769.63 52.91 769.74 48.68 769.94 44.46 C 770.01 41.28 769.68 38.01 767.68 35.40 C 764.39 30.48 762.04 25.01 758.93 19.99 C 757.33 17.43 755.81 14.80 754.72 11.98 Z" />
<path fill="#ffffff" d=" M 268.87 15.00 C 273.87 15.11 278.88 14.81 283.87 15.14 C 288.16 15.77 291.02 19.99 291.51 24.07 C 292.21 27.38 290.99 30.62 289.86 33.67 C 288.08 35.04 286.51 37.13 284.05 37.14 C 278.98 37.55 273.88 37.24 268.81 37.18 C 269.14 29.80 269.15 22.38 268.87 15.00 Z" />
<path fill="#ffffff" d=" M 397.87 15.00 C 403.08 15.17 408.33 14.70 413.52 15.24 C 422.57 17.95 423.14 32.70 414.91 36.77 C 409.29 37.87 403.49 37.12 397.80 37.18 C 398.12 29.80 398.16 22.38 397.87 15.00 Z" />
<path fill="#ff8d4d" d=" M 176.02 15.00 C 177.97 16.36 177.24 18.86 177.40 20.84 C 177.12 29.27 177.63 37.72 177.21 46.14 C 176.95 46.03 176.45 45.82 176.19 45.71 C 175.95 44.54 175.77 43.36 175.66 42.17 L 176.20 41.84 C 175.71 37.66 175.68 33.42 176.17 29.24 C 176.10 29.10 175.95 28.82 175.88 28.69 C 175.90 24.12 175.71 19.56 176.02 15.00 Z" />
<path fill="#ffffff" d=" M 115.01 39.00 C 118.33 31.37 120.76 23.40 123.97 15.72 C 127.02 23.45 129.68 31.33 132.90 39.00 C 126.94 39.07 120.97 38.98 115.01 39.00 Z" />
<path fill="#ffffff" d=" M 656.01 39.00 C 659.33 31.37 661.76 23.39 664.98 15.72 C 668.02 23.45 670.66 31.34 673.92 38.99 C 667.95 39.08 661.98 38.98 656.01 39.00 Z" />
<path fill="#ff8d4d" d=" M 315.69 19.45 C 316.24 19.94 316.80 20.44 317.35 20.95 C 315.48 22.46 314.30 24.56 313.18 26.63 C 313.32 26.97 313.62 27.66 313.76 28.01 C 313.23 28.06 312.15 28.16 311.62 28.21 C 312.36 26.25 313.11 24.29 313.91 22.35 C 314.35 21.63 315.24 20.17 315.69 19.45 Z" />
<path fill="#ff8d4d" d=" M 567.28 20.20 C 568.01 20.86 568.69 21.59 569.43 22.26 C 570.07 23.99 570.72 25.71 571.42 27.42 C 571.42 27.69 571.43 28.23 571.43 28.50 C 571.76 30.04 572.02 31.60 572.33 33.14 L 570.85 33.07 C 570.53 29.29 569.73 25.48 567.40 22.39 C 567.37 21.84 567.31 20.75 567.28 20.20 Z" />
<path fill="#ff8d4d" d=" M 14.56 22.03 C 15.51 22.01 16.46 21.99 17.42 21.97 C 17.20 22.98 16.78 25.01 16.56 26.02 C 16.19 26.04 15.45 26.08 15.08 26.10 C 14.95 25.08 14.69 23.04 14.56 22.03 Z" />
<path fill="#ff8d4d" d=" M 517.80 21.85 C 518.21 21.87 519.02 21.92 519.43 21.95 C 519.40 23.30 519.38 24.64 519.38 25.99 C 518.98 26.04 518.17 26.12 517.77 26.16 C 517.77 24.72 517.78 23.29 517.80 21.85 Z" />
<path fill="#ff8d4d" d=" M 350.28 24.81 C 350.71 24.80 351.58 24.79 352.01 24.78 C 351.99 25.67 351.97 27.45 351.95 28.34 C 351.82 29.75 351.68 31.16 351.54 32.57 C 358.36 33.58 365.29 33.00 372.16 33.05 C 372.22 33.54 372.34 34.51 372.40 35.00 C 365.03 35.57 357.28 33.73 350.20 36.27 C 350.48 32.46 350.51 28.63 350.28 24.81 Z" />
<path fill="#ff8d4d" d=" M 618.28 24.81 C 618.71 24.82 619.58 24.85 620.02 24.86 C 619.98 25.73 619.91 27.47 619.88 28.34 C 619.96 31.27 619.94 34.20 619.67 37.11 C 625.55 37.29 631.47 37.65 637.32 36.75 C 638.41 35.65 639.53 34.56 640.66 33.48 C 641.61 31.31 641.41 28.10 644.13 27.30 C 643.57 29.40 642.93 31.48 642.32 33.56 C 640.61 36.38 637.81 38.04 635.03 39.61 C 635.82 41.26 636.83 42.81 637.78 44.39 C 640.32 48.32 642.78 52.35 644.41 56.76 C 641.79 55.62 640.73 52.91 639.47 50.57 C 637.46 46.68 635.21 42.92 633.18 39.04 C 628.80 39.09 624.42 39.06 620.04 39.01 C 620.02 40.35 620.01 41.68 620.01 43.02 C 619.56 43.05 618.68 43.12 618.24 43.16 C 618.50 37.05 618.51 30.93 618.28 24.81 Z" />
<path fill="#ff8d4d" d=" M 15.00 26.95 C 15.44 26.95 16.32 26.95 16.76 26.95 C 16.74 28.33 16.74 29.72 16.76 31.10 C 16.32 31.11 15.44 31.13 15.00 31.14 C 15.01 29.74 15.01 28.35 15.00 26.95 Z" />
<path fill="#ff8d4d" d=" M 517.81 26.92 C 518.21 26.93 519.01 26.96 519.41 26.97 C 519.39 28.32 519.38 29.67 519.39 31.02 C 518.98 31.05 518.18 31.12 517.77 31.15 C 517.78 29.74 517.80 28.33 517.81 26.92 Z" />
<path fill="#ff8d4d" d=" M 311.16 29.02 C 311.65 28.94 312.64 28.78 313.13 28.70 C 312.90 30.13 312.68 31.56 312.47 32.99 C 312.09 33.04 311.33 33.15 310.95 33.20 C 311.03 31.80 311.10 30.41 311.16 29.02 Z" />
<path fill="#ff8d4d" d=" M 578.37 29.12 C 580.01 29.57 579.20 33.63 577.41 32.93 C 576.75 31.73 577.23 29.87 578.37 29.12 Z" />
<path fill="#ff8d4d" d=" M 147.23 30.36 C 147.46 30.30 147.91 30.19 148.13 30.13 C 148.43 32.22 148.40 34.34 148.47 36.46 C 148.14 36.30 147.48 36.00 147.15 35.85 C 146.41 34.20 146.52 32.02 147.23 30.36 Z" />
<path fill="#ff8d4d" d=" M 14.99 31.87 C 15.43 31.89 16.31 31.93 16.75 31.95 C 16.67 34.02 16.64 36.09 16.78 38.16 C 16.35 38.15 15.49 38.13 15.06 38.12 C 15.06 36.04 15.02 33.95 14.99 31.87 Z" />
<path fill="#ff8d4d" d=" M 518.02 31.12 C 520.07 32.88 519.19 35.82 519.50 38.18 C 519.06 38.18 518.19 38.18 517.76 38.18 C 517.80 35.82 517.84 33.47 518.02 31.12 Z" />
<path fill="#ff8d4d" d=" M 310.91 33.90 C 311.33 33.91 312.16 33.94 312.57 33.96 C 312.00 41.66 316.44 48.97 322.60 53.33 C 324.00 53.75 325.40 54.19 326.79 54.66 C 330.06 54.66 333.55 54.38 336.30 52.43 C 339.28 50.49 340.99 47.28 343.33 44.70 C 342.88 47.94 340.83 50.49 338.66 52.78 C 336.94 53.70 335.24 54.64 333.54 55.59 C 329.88 56.47 325.80 56.77 322.49 54.64 C 318.18 52.05 313.83 48.24 312.95 43.04 L 312.23 43.02 C 311.94 41.16 311.63 39.30 311.26 37.46 C 311.17 36.57 311.00 34.79 310.91 33.90 Z" />
<path fill="#ff8d4d" d=" M 465.77 33.97 C 467.79 33.58 467.83 38.35 465.84 38.12 C 464.91 37.07 464.88 35.06 465.77 33.97 Z" />
<path fill="#ff8d4d" d=" M 498.51 34.09 C 498.92 34.00 499.72 33.83 500.13 33.75 C 499.89 36.09 499.65 38.44 499.42 40.78 L 498.79 41.10 C 497.59 50.03 488.57 57.45 479.44 55.84 C 478.05 55.15 476.65 54.46 475.26 53.79 C 474.79 53.46 473.86 52.80 473.39 52.47 C 470.08 49.56 468.10 45.59 466.52 41.55 C 466.31 40.91 465.88 39.62 465.67 38.98 C 466.07 38.98 466.87 38.99 467.27 39.00 C 468.00 41.91 469.10 44.70 470.46 47.37 C 473.23 50.19 476.23 53.13 480.21 54.07 C 483.00 54.51 485.81 53.87 488.53 53.23 C 491.34 51.06 494.19 48.80 495.79 45.54 C 496.76 43.07 497.75 40.61 498.76 38.16 L 498.08 37.90 C 498.23 36.63 498.38 35.36 498.51 34.09 Z" />
<path fill="#ff8d4d" d=" M 537.98 34.08 C 539.80 33.55 540.01 37.77 538.32 37.96 C 537.19 37.11 537.20 35.16 537.98 34.08 Z" />
<path fill="#ff8d4d" d=" M 571.10 34.11 C 573.29 33.24 572.84 39.01 570.78 38.05 C 570.07 36.87 570.32 35.19 571.10 34.11 Z" />
<path fill="#ff8d4d" d=" M 576.99 33.96 C 577.41 33.92 578.26 33.84 578.68 33.80 C 578.79 35.26 578.91 36.73 579.05 38.19 C 578.64 38.16 577.80 38.09 577.39 38.06 C 577.26 36.69 577.13 35.32 576.99 33.96 Z" />
<path fill="#ff8d4d" d=" M 598.97 35.21 C 602.90 35.30 606.89 35.07 610.75 36.03 C 606.92 37.85 602.57 36.89 598.51 37.04 C 598.62 36.58 598.85 35.67 598.97 35.21 Z" />
<path fill="#ff8d4d" d=" M 49.03 36.79 C 49.47 36.79 50.35 36.78 50.78 36.77 C 50.76 38.92 50.77 41.06 50.81 43.20 C 50.37 43.17 49.49 43.12 49.04 43.09 C 49.08 40.99 49.07 38.89 49.03 36.79 Z" />
<path fill="#ff8d4d" d=" M 80.04 36.85 C 80.48 36.83 81.36 36.78 81.79 36.75 C 81.77 38.90 81.77 41.04 81.80 43.19 C 81.36 43.16 80.48 43.11 80.04 43.09 C 80.08 41.01 80.08 38.93 80.04 36.85 Z" />
<path fill="#ff8d4d" d=" M 147.17 37.25 C 149.10 36.15 148.00 40.03 148.63 41.00 C 148.11 41.08 147.07 41.23 146.54 41.30 C 146.69 39.94 146.90 38.59 147.17 37.25 Z" />
<path fill="#ff8d4d" d=" M 350.32 36.94 C 350.74 36.88 351.59 36.77 352.01 36.72 C 351.98 38.84 351.96 40.96 352.00 43.08 C 351.57 43.10 350.71 43.14 350.28 43.16 C 350.33 41.09 350.34 39.01 350.32 36.94 Z" />
<path fill="#ff8d4d" d=" M 607.83 44.08 C 608.00 41.62 607.54 38.96 609.02 36.80 C 609.44 39.23 609.63 41.70 609.86 44.15 C 609.35 44.14 608.34 44.10 607.83 44.08 Z" />
<path fill="#ff8d4d" d=" M 14.99 38.78 C 15.42 38.82 16.29 38.89 16.72 38.93 C 16.74 40.31 16.77 41.70 16.81 43.08 C 16.36 43.08 15.45 43.08 15.00 43.08 C 15.00 41.64 14.99 40.21 14.99 38.78 Z" />
<path fill="#ff8d4d" d=" M 518.05 39.24 C 520.00 37.92 520.45 43.23 518.50 43.18 C 517.27 42.35 517.41 40.40 518.05 39.24 Z" />
<path fill="#ff8d4d" d=" M 537.75 38.91 C 538.29 38.92 539.38 38.93 539.93 38.94 C 540.15 40.46 540.39 41.98 540.62 43.50 C 543.46 48.88 548.37 54.27 554.93 54.22 C 560.89 54.33 565.49 49.82 568.68 45.25 L 567.95 44.17 L 569.28 43.95 C 569.58 42.06 569.93 40.18 570.33 38.31 C 570.71 38.71 571.46 39.53 571.84 39.93 C 570.04 46.20 566.40 52.70 559.92 55.02 C 556.20 56.66 552.04 55.96 548.39 54.52 C 544.10 51.67 540.80 47.62 539.11 42.74 C 538.65 41.46 538.19 40.19 537.75 38.91 Z" />
<path fill="#ff8d4d" d=" M 577.64 38.78 C 578.01 38.83 578.75 38.94 579.12 39.00 C 580.21 45.03 584.08 49.90 588.94 53.41 C 591.60 54.14 594.33 54.69 597.11 54.67 C 598.51 54.20 599.93 53.78 601.35 53.37 C 604.49 50.91 607.52 48.09 608.86 44.21 C 609.62 46.46 609.77 48.84 609.88 51.19 C 609.36 51.14 608.33 51.03 607.81 50.98 L 608.45 48.80 C 605.81 52.17 602.29 54.61 598.33 56.16 L 597.84 55.73 C 594.97 56.57 591.98 56.26 589.26 55.07 C 587.97 54.19 586.66 53.34 585.37 52.48 C 582.83 49.70 579.57 47.06 579.23 43.03 C 578.93 43.01 578.34 42.96 578.04 42.93 C 578.20 42.58 578.51 41.88 578.66 41.53 C 578.41 40.84 577.89 39.46 577.64 38.78 Z" />
<path fill="#ff8d4d" d=" M 147.01 42.17 C 149.01 40.61 149.34 45.97 147.50 46.13 C 146.23 45.33 146.45 43.35 147.01 42.17 Z" />
<path fill="#ff8d4d" d=" M 456.18 42.14 C 456.48 41.98 457.07 41.67 457.37 41.51 C 457.41 43.79 457.40 46.08 457.32 48.35 C 457.04 48.23 456.47 47.99 456.19 47.87 C 455.77 45.99 455.71 44.01 456.18 42.14 Z" />
<path fill="#ff8d4d" d=" M 15.24 44.30 C 17.18 42.98 17.34 47.26 16.30 48.15 C 14.48 48.33 14.55 45.40 15.24 44.30 Z" />
<path fill="#ff8d4d" d=" M 49.03 43.78 C 49.46 43.82 50.32 43.91 50.75 43.95 C 50.76 45.34 50.79 46.72 50.83 48.11 C 50.38 48.12 49.47 48.13 49.01 48.14 C 49.03 46.69 49.03 45.23 49.03 43.78 Z" />
<path fill="#ff8d4d" d=" M 80.03 43.77 C 80.46 43.82 81.32 43.90 81.76 43.94 C 81.76 45.31 81.78 46.69 81.81 48.06 C 81.36 48.08 80.46 48.12 80.01 48.14 C 80.03 46.68 80.03 45.23 80.03 43.77 Z" />
<path fill="#ff8d4d" d=" M 235.09 44.23 C 237.04 42.85 237.47 48.21 235.58 48.23 C 234.35 47.38 234.50 45.43 235.09 44.23 Z" />
<path fill="#ff8d4d" d=" M 267.97 43.97 C 269.95 43.59 269.93 48.36 268.00 48.22 C 267.03 47.12 267.12 45.12 267.97 43.97 Z" />
<path fill="#ff8d4d" d=" M 350.32 43.95 C 350.74 43.90 351.58 43.81 352.00 43.76 C 351.99 45.21 351.98 46.66 352.00 48.11 C 351.57 48.12 350.71 48.14 350.29 48.15 C 350.31 46.75 350.32 45.35 350.32 43.95 Z" />
<path fill="#ff8d4d" d=" M 396.97 43.92 C 398.93 43.58 398.93 48.33 397.01 48.20 C 396.04 47.09 396.12 45.08 396.97 43.92 Z" />
<path fill="#ff8d4d" d=" M 429.35 43.92 C 429.77 43.88 430.59 43.80 431.00 43.77 C 430.98 45.23 430.98 46.69 431.00 48.15 C 430.56 48.16 429.69 48.18 429.26 48.19 C 429.30 46.77 429.33 45.34 429.35 43.92 Z" />
<path fill="#ff8d4d" d=" M 518.02 44.31 C 519.98 42.85 520.43 48.21 518.52 48.23 C 517.26 47.43 517.42 45.48 518.02 44.31 Z" />
<path fill="#ff8d4d" d=" M 617.99 48.15 C 618.38 46.40 618.25 44.34 619.79 43.08 C 619.88 44.77 619.97 46.47 620.04 48.17 C 619.52 48.16 618.50 48.16 617.99 48.15 Z" />
<path fill="#ff8d4d" d=" M 688.02 43.87 C 688.45 43.88 689.32 43.90 689.75 43.91 C 689.76 45.30 689.78 46.69 689.83 48.09 C 689.38 48.10 688.47 48.13 688.01 48.15 C 688.02 46.72 688.02 45.30 688.02 43.87 Z" />
<path fill="#ff8d4d" d=" M 721.11 44.21 C 723.06 42.94 723.45 48.27 721.57 48.25 C 720.36 47.36 720.48 45.42 721.11 44.21 Z" />
<path fill="#ff8d4d" d=" M 747.36 43.97 C 747.77 43.89 748.59 43.71 749.00 43.63 C 748.98 45.13 748.98 46.63 749.00 48.13 C 748.57 48.12 747.72 48.11 747.29 48.11 C 747.32 46.73 747.34 45.35 747.36 43.97 Z" />
<path fill="#ff8d4d" d=" M 198.28 45.10 C 201.32 43.56 198.50 48.39 198.28 45.10 Z" />
<path fill="#ff8d4d" d=" M 146.78 46.76 C 147.18 46.79 148.00 46.83 148.41 46.86 C 148.34 48.91 148.33 50.97 148.39 53.03 C 147.99 53.02 147.18 53.01 146.77 53.00 C 146.79 50.92 146.79 48.84 146.78 46.76 Z" />
<path fill="#ff8d4d" d=" M 198.17 46.14 C 200.10 46.96 199.81 49.07 200.10 50.79 L 199.53 51.28 C 199.71 52.88 199.90 54.49 200.09 56.10 C 199.57 56.10 198.53 56.10 198.02 56.10 C 198.12 54.25 198.19 52.39 198.25 50.54 C 198.21 49.08 198.19 47.61 198.17 46.14 Z" />
<path fill="#ff8d4d" d=" M 15.00 48.85 C 15.42 48.88 16.27 48.94 16.69 48.97 C 16.71 50.33 16.75 51.69 16.80 53.05 C 16.35 53.04 15.45 53.03 15.00 53.03 C 15.01 51.63 15.01 50.24 15.00 48.85 Z" />
<path fill="#ff8d4d" d=" M 49.00 48.78 C 49.45 48.82 50.35 48.89 50.80 48.93 C 50.78 50.28 50.77 51.64 50.78 53.00 C 50.34 53.00 49.46 53.00 49.03 53.00 C 49.03 51.59 49.02 50.19 49.00 48.78 Z" />
<path fill="#ff8d4d" d=" M 80.00 48.78 C 80.45 48.81 81.36 48.86 81.81 48.88 C 81.78 50.25 81.77 51.63 81.77 53.00 C 81.33 53.00 80.46 53.00 80.03 53.00 C 80.03 51.59 80.02 50.19 80.00 48.78 Z" />
<path fill="#ff8d4d" d=" M 235.23 48.04 C 236.28 49.46 236.38 51.26 236.72 52.92 C 236.25 53.02 235.29 53.21 234.81 53.31 C 234.91 51.55 235.05 49.79 235.23 48.04 Z" />
<path fill="#ff8d4d" d=" M 268.94 54.10 C 267.07 52.45 267.38 49.74 268.91 48.01 C 269.03 50.04 269.04 52.07 268.94 54.10 Z" />
<path fill="#ff8d4d" d=" M 350.26 48.88 C 350.75 48.87 351.73 48.84 352.22 48.82 C 351.94 50.59 352.45 52.86 350.46 53.77 C 350.38 52.14 350.31 50.51 350.26 48.88 Z" />
<path fill="#ff8d4d" d=" M 397.93 54.12 C 396.13 52.42 396.35 49.76 397.91 48.00 C 398.03 50.04 398.04 52.08 397.93 54.12 Z" />
<path fill="#ff8d4d" d=" M 429.31 48.94 C 429.74 48.92 430.59 48.88 431.01 48.86 C 431.00 50.24 431.00 51.62 431.01 53.00 C 430.58 53.00 429.73 53.00 429.31 53.00 C 429.31 51.65 429.31 50.29 429.31 48.94 Z" />
<path fill="#ff8d4d" d=" M 456.18 49.26 C 458.19 47.97 457.04 51.99 457.64 53.00 C 457.16 53.07 456.21 53.20 455.73 53.26 C 455.81 51.92 455.96 50.58 456.18 49.26 Z" />
<path fill="#ff8d4d" d=" M 518.02 49.27 C 519.99 47.87 520.48 53.18 518.51 53.13 C 517.26 52.36 517.39 50.41 518.02 49.27 Z" />
<path fill="#ff8d4d" d=" M 618.31 48.93 C 618.73 48.91 619.58 48.89 620.01 48.87 C 620.00 50.25 620.00 51.62 620.01 53.00 C 619.59 53.00 618.73 53.00 618.30 53.00 C 618.31 51.64 618.31 50.29 618.31 48.93 Z" />
<path fill="#ff8d4d" d=" M 688.00 48.80 C 688.45 48.83 689.35 48.87 689.81 48.90 C 689.78 50.26 689.76 51.63 689.77 53.00 C 689.34 53.00 688.46 53.00 688.03 53.00 C 688.02 51.60 688.01 50.20 688.00 48.80 Z" />
<path fill="#ff8d4d" d=" M 720.94 48.75 C 721.32 48.81 722.06 48.95 722.43 49.02 C 722.41 50.34 722.40 51.66 722.41 52.98 C 722.04 53.07 721.28 53.23 720.90 53.31 C 720.91 51.79 720.92 50.27 720.94 48.75 Z" />
<path fill="#ff8d4d" d=" M 747.55 48.91 C 747.88 48.85 748.56 48.75 748.89 48.69 C 749.03 49.78 749.31 51.94 749.45 53.02 C 748.49 53.04 747.54 53.06 746.61 53.09 C 746.84 52.04 747.31 49.95 747.55 48.91 Z" />
<path fill="#ff8d4d" d=" M 607.94 51.62 C 608.36 51.70 609.21 51.87 609.63 51.95 C 609.65 53.33 609.68 54.71 609.74 56.08 C 609.29 56.08 608.40 56.08 607.95 56.08 C 607.94 54.59 607.93 53.10 607.94 51.62 Z" />
<path fill="#ff8d4d" d=" M 15.06 53.96 C 16.69 53.43 17.24 53.98 16.72 55.61 C 15.09 56.15 14.54 55.60 15.06 53.96 Z" />
<path fill="#ff8d4d" d=" M 49.14 53.75 C 50.79 53.28 51.33 53.84 50.76 55.45 C 49.12 55.93 48.58 55.36 49.14 53.75 Z" />
<path fill="#ff8d4d" d=" M 80.12 53.78 C 81.74 53.25 82.30 53.79 81.79 55.42 C 80.17 55.96 79.61 55.41 80.12 53.78 Z" />
<path fill="#ff8d4d" d=" M 146.80 53.92 C 148.42 53.43 148.95 53.99 148.41 55.62 C 146.79 56.12 146.25 55.55 146.80 53.92 Z" />
<path fill="#ff8d4d" d=" M 234.98 54.00 C 236.36 53.48 236.85 53.94 236.45 55.37 C 235.07 55.88 234.58 55.43 234.98 54.00 Z" />
<path fill="#ff8d4d" d=" M 268.04 53.98 C 271.38 54.30 266.32 56.87 268.04 53.98 Z" />
<path fill="#ff8d4d" d=" M 350.12 53.91 C 358.14 53.79 366.16 53.91 374.18 53.84 L 374.19 55.60 C 366.15 55.41 358.10 55.66 350.06 55.43 L 350.12 53.91 Z" />
<path fill="#ff8d4d" d=" M 397.04 53.98 C 400.37 54.28 395.33 56.89 397.04 53.98 Z" />
<path fill="#ff8d4d" d=" M 429.27 53.76 C 430.91 53.31 431.45 53.88 430.88 55.49 C 429.23 55.93 428.69 55.35 429.27 53.76 Z" />
<path fill="#ff8d4d" d=" M 455.98 54.00 C 457.34 53.47 457.84 53.91 457.48 55.35 C 456.10 55.89 455.60 55.44 455.98 54.00 Z" />
<path fill="#ff8d4d" d=" M 517.79 54.06 C 519.41 53.54 519.95 54.10 519.42 55.74 C 517.80 56.26 517.26 55.70 517.79 54.06 Z" />
<path fill="#ff8d4d" d=" M 618.27 53.76 C 619.91 53.31 620.45 53.89 619.88 55.49 C 618.22 55.93 617.69 55.35 618.27 53.76 Z" />
<path fill="#ff8d4d" d=" M 688.11 53.79 C 689.72 53.24 690.29 53.78 689.80 55.41 C 688.18 55.97 687.61 55.43 688.11 53.79 Z" />
<path fill="#ff8d4d" d=" M 721.00 53.98 C 722.39 53.51 722.86 53.99 722.42 55.40 C 721.02 55.87 720.55 55.39 721.00 53.98 Z" />
<path fill="#ff8d4d" d=" M 746.63 54.59 C 747.53 53.55 748.46 53.53 749.43 54.53 C 748.54 56.16 747.61 56.18 746.63 54.59 Z" />
</svg>
